<svg width="1200" height="675" fill="none" xmlns="http://www.w3.org/2000/svg">
  <g clip-path="url(#a)">
    <path fill="#145AC6" d="M0 0h1200v675H0z" />
    <path fill="#fff" fill-opacity=".2" d="M506.5 174h188v54h-188z" />
    <path
      d="M519.7 192h10.5v2.1h-8.1v5.9h7v2.2h-7v6.6h8.7v2.2h-11.1v-19Zm20.7 9-5.5-9.1h2.6l4.1 7h.2l4-7h2.7L543 201l5.8 10H546l-4.3-7.8h-.1l-4.4 7.8h-2.7l5.8-10Zm16.4-9.1c2.1 0 3.8.2 5 .5 1 .4 1.9 1 2.4 1.8.4.9.7 2.1.7 3.7 0 1.5-.2 2.7-.7 3.5-.4.8-1 1.4-2 1.8-1 .3-2.4.5-4.2.5h-2.5v7.3h-2.4v-19l3.7-.1Zm1 9.6c1.2 0 2.1-.1 2.8-.3.7-.3 1.2-.6 1.5-1.1.3-.6.4-1.3.4-2.3 0-1-.1-1.8-.5-2.3-.3-.5-.8-.9-1.5-1.1-.8-.2-1.8-.3-3.2-.3h-1.8v7.4h2.3ZM570 192h10.5v2.1h-8.1v5.9h7v2.2h-7v6.6h8.7v2.2H570v-19Zm16 0 2.9-.1c2.3-.1 4.1 0 5.4.3 1.2.3 2.1.9 2.6 1.6.5.8.8 1.9.8 3.3 0 1 0 2-.3 2.6-.2.6-.5 1.1-1 1.5-.5.3-1.2.6-2.1.7v.1a3 3 0 0 1 1.9 1c.3.5.7 1.3 1 2.5l1.5 5.5H596l-1.2-5.5c-.2-1-.6-1.8-1.2-2.1-.6-.4-1.5-.6-2.8-.6h-2.3v8.2h-2.4v-19Zm6.6 8.6c1 0 1.8-.3 2.2-.8.3-.5.5-1.3.5-2.6 0-.8 0-1.3-.2-1.7-.2-.5-.4-.7-.8-1l-1.8-.4a16.7 16.7 0 0 0-4 0v6.5h4.1Zm11.4 8.2h3.5v-14.6h-3.3V192h9.1v2.2H610v14.6h3.6v2.2h-9.5v-2.2Zm14.7-16.8h3.2l3.5 9.5h.3l3.4-9.5h3.2v19h-2.3v-11.9l.3-4.1h-.1l-3.5 9.3h-2.3L621 195h-.2l.3 4.1V211h-2.3v-19Zm18.4 0h10.6v2.1h-8.2v5.9h7.1v2.2h-7v6.6h8.6v2.2h-11v-19Zm15.7 0h2.8l7.7 15.7h.2l-.4-3.9V192h2.3v19h-2.8l-7.7-15.7h-.2l.4 3.8V211H653v-19Zm21.9 2.2h-5.2V192h12.8v2.2h-5.2V211h-2.4v-16.8ZM428.7 280h28.2v5.9h-21.8v15.6h19v5.9h-19v17.8h23.3v5.8h-29.7v-51Zm55.4 24.3-14.6-24.4h7l10.9 19h.4l10.7-19h7.2l-14.6 24.4 15.5 26.7h-7.2l-11.6-21h-.3l-11.8 21h-7l15.4-26.7Zm44-24.5c5.7 0 10.1.4 13.2 1.4 3 1 5.2 2.6 6.5 4.9 1.3 2.3 2 5.6 2 9.9 0 4-.6 7.1-1.8 9.4a9.6 9.6 0 0 1-5.6 4.7c-2.6 1-6.3 1.4-11.1 1.4h-6.6V331h-6.5v-51l9.9-.2Zm2.5 25.8c3.3 0 5.9-.3 7.7-1a6.4 6.4 0 0 0 3.9-3c.8-1.4 1.2-3.4 1.2-6 0-2.7-.5-4.7-1.3-6a6.5 6.5 0 0 0-4.2-3c-2-.7-4.8-1-8.6-1h-4.6v20h6Zm34.1 0h25.7v6h-25.7v-6Zm57.6 5.8-2-.1c-.4-.1-.7-.3-.9-.5-.2-.2-.3-.6-.4-1.2-.3-1-.4-2.3-.4-3.8 0-1.6.1-2.7.3-3.3v-.4l.5-1.3c.2-.3.5-.4 1-.5l2-.1c1.3 0 2.1.1 2.5.4.4.1.7.6.8 1.4.3 1 .4 2.3.4 3.8 0 1.6-.1 2.6-.3 3.3v.4l-.6 1.3c-.2.3-.4.4-.8.6h-2Zm.2 20.7a33 33 0 0 1-8.5-.9 7.4 7.4 0 0 1-4.5-3c-1-1.6-2-4-2.8-7.4a52 52 0 0 1-1.4-15 68 68 0 0 1 1.5-15c.8-3.4 1.7-5.8 2.7-7.4 1-1.5 2.5-2.5 4.5-3a33 33 0 0 1 8.5-.8c3.8 0 6.6.2 8.5.8 2 .5 3.4 1.5 4.4 3 1 1.6 2 4 2.8 7.4a55.1 55.1 0 0 1 1.5 15 82.6 82.6 0 0 1-1.5 15c-.8 3.3-1.7 5.8-2.7 7.3a7.4 7.4 0 0 1-4.5 3.1 33 33 0 0 1-8.5.9Zm0-5.6c2.4 0 4.2-.3 5.5-.8a5 5 0 0 0 2.8-2.3c.6-1 1-2.5 1.4-4.5v-.6a64.3 64.3 0 0 0 .8-19.8 61 61 0 0 0-.8-5.1v-.6c-.4-2-.9-3.6-1.5-4.6a5 5 0 0 0-2.7-2.3c-1.3-.5-3.1-.8-5.5-.8a16 16 0 0 0-5.5.8 5.4 5.4 0 0 0-2.8 2.3c-.6 1-1 2.6-1.4 4.6v.6a61 61 0 0 0-1.1 12.4c0 4.8.3 9 1 12.4l.1.7c.4 2 .8 3.5 1.4 4.5.6 1 1.5 1.9 2.8 2.4 1.3.4 3.1.7 5.5.7Zm44.8-15-2-.2c-.4-.1-.7-.3-.9-.5-.2-.2-.4-.6-.5-1.2-.2-1-.3-2.3-.3-3.8 0-1.6 0-2.7.3-3.3v-.4l.5-1.3c.2-.3.5-.4.9-.5l2-.1c1.3 0 2.2.1 2.6.4.4.1.6.6.8 1.4.2 1 .4 2.3.4 3.8 0 1.6-.1 2.6-.3 3.3l-.1.4-.5 1.3c-.2.3-.5.4-.9.6h-2Zm.2 20.6a33 33 0 0 1-8.6-.9 7.4 7.4 0 0 1-4.4-3c-1-1.6-2-4-2.8-7.4a52 52 0 0 1-1.4-15 68 68 0 0 1 1.5-15c.8-3.4 1.7-5.8 2.7-7.4 1-1.5 2.5-2.5 4.4-3a33 33 0 0 1 8.6-.8c3.8 0 6.6.2 8.5.8 2 .5 3.4 1.5 4.4 3 1 1.6 2 4 2.7 7.4a55.1 55.1 0 0 1 1.5 15 82.6 82.6 0 0 1-1.4 15c-.8 3.3-1.7 5.8-2.8 7.3a7.4 7.4 0 0 1-4.4 3.1 33 33 0 0 1-8.5.9Zm0-5.6c2.4 0 4.2-.3 5.4-.8a5 5 0 0 0 2.8-2.3c.6-1 1.1-2.5 1.4-4.5l.1-.6a64.3 64.3 0 0 0 .8-19.8 61 61 0 0 0-.8-5.1v-.6c-.4-2-.9-3.6-1.5-4.6a5 5 0 0 0-2.8-2.3c-1.2-.5-3-.8-5.4-.8a16 16 0 0 0-5.6.8 5.4 5.4 0 0 0-2.8 2.3c-.5 1-1 2.6-1.3 4.6v.6a61 61 0 0 0-1.1 12.4c0 4.8.3 9 1 12.4l.1.7c.3 2 .8 3.5 1.3 4.5.6 1 1.6 1.9 2.8 2.4 1.3.4 3.2.7 5.6.7Zm44.8-15-2-.2-1-.5-.4-1.2c-.2-1-.4-2.3-.4-3.8 0-1.6.1-2.7.3-3.3l.1-.4.5-1.3c.2-.3.5-.4.9-.5l2-.1c1.3 0 2.1.1 2.5.4.4.1.7.6.9 1.4.2 1 .3 2.3.3 3.8 0 1.6 0 2.6-.3 3.3v.4l-.6 1.3c-.1.3-.4.4-.8.6h-2Zm.1 20.6a33 33 0 0 1-8.5-.9 7.4 7.4 0 0 1-4.4-3c-1-1.6-2-4-2.8-7.4a52 52 0 0 1-1.4-15c0-3.6 0-6.4.3-8.7a68 68 0 0 1 1.2-6.3c.8-3.4 1.7-5.8 2.7-7.4 1-1.5 2.5-2.5 4.4-3a33 33 0 0 1 8.5-.8c3.8 0 6.7.2 8.6.8 1.9.5 3.3 1.5 4.3 3 1 1.6 2 4 2.8 7.4a55.1 55.1 0 0 1 1.5 15 82.6 82.6 0 0 1-1.4 15c-.8 3.3-1.7 5.8-2.8 7.3a7.4 7.4 0 0 1-4.4 3.1 33 33 0 0 1-8.6.9Zm0-5.6c2.4 0 4.3-.3 5.5-.8a5 5 0 0 0 2.8-2.3c.6-1 1-2.5 1.4-4.5v-.6a64.3 64.3 0 0 0 .8-19.8 61 61 0 0 0-.7-5.1v-.6c-.4-2-1-3.6-1.5-4.6a5 5 0 0 0-2.8-2.3c-1.2-.5-3-.8-5.5-.8a16 16 0 0 0-5.5.8 5.4 5.4 0 0 0-2.8 2.3c-.5 1-1 2.6-1.3 4.6l-.1.6a61 61 0 0 0-1 12.4c0 4.8.3 9 1 12.4v.7c.4 2 .9 3.5 1.4 4.5.6 1 1.5 1.9 2.8 2.4 1.3.4 3.1.7 5.5.7Zm41.2 5.2a33.6 33.6 0 0 1-13-2.6v-6.5a39 39 0 0 0 6.7 2.6c1.9.5 3.9.8 6 .8 3 0 5.5-.4 7.3-1 1.8-.8 3-2 3.8-3.5a15 15 0 0 0 1.2-6.6c0-2.8-.5-5-1.6-6.4-1-1.4-2.7-2.4-5-2.7-2.4-.4-5.7-.2-10 .4v-7l14.2-13.4v-.3h-21.6V280h27.6v7.1l-14 13.4v.1c4-.3 7.2 0 9.6.8a9 9 0 0 1 5.4 4.6 20 20 0 0 1 1.7 9.1c0 4.1-.6 7.4-1.8 9.8-1.2 2.4-3 4.2-5.7 5.2-2.6 1-6.2 1.6-10.8 1.6Z"
      fill="#fff" />
    <path opacity=".8"
      d="M432.6 448.4a11 11 0 0 1-5.7-1.2 7.2 7.2 0 0 1-3-4.3c-.5-2-.8-4.8-.8-8.4 0-3.7.3-6.5.9-8.5a7 7 0 0 1 2.9-4.3c1.3-.9 3.2-1.3 5.7-1.3s4.4.4 5.7 1.3a7 7 0 0 1 2.9 4.3c.6 2 .9 4.8.9 8.5 0 3.6-.3 6.4-1 8.4a7 7 0 0 1-2.8 4.3c-1.3.8-3.2 1.2-5.7 1.2Zm0-3a6 6 0 0 0 3.7-1c.8-.7 1.4-1.8 1.8-3.3.3-1.6.5-3.8.5-6.6 0-2.9-.2-5.1-.5-6.7-.4-1.6-1-2.7-1.8-3.3-.9-.7-2.1-1-3.7-1s-2.8.3-3.7 1c-.8.6-1.4 1.7-1.8 3.3a33 33 0 0 0-.5 6.7c0 2.8.2 5 .5 6.6.4 1.5 1 2.6 1.8 3.3.9.6 2.1 1 3.7 1Zm21.3-15.1h-5.2l-1-3.2h6.2v-2.9a7 7 0 0 1 1-4c.6-1 1.7-1.5 3.2-1.8 1.5-.4 3.8-.5 6.7-.3v3c-2-.1-3.6 0-4.7.1-1.1.2-1.9.5-2.3 1-.5.5-.7 1.2-.7 2.2v2.7h7.3v3.2H457V448H454v-17.7Zm24 0h-5.2l-1-3.2h6.2v-2.9a7 7 0 0 1 1-4c.6-1 1.6-1.5 3.2-1.8 1.5-.4 3.7-.5 6.6-.3v3c-2-.1-3.5 0-4.6.1-1.1.2-1.9.5-2.4 1-.4.5-.6 1.2-.6 2.2v2.7h7.2v3.2h-7.2V448H478v-17.7Zm18.3 14.7h7V422h-6.6v-3h10V445h6.6v3h-17v-3Zm30.4-26.1h4.6v4.5h-4.6V419ZM521 445h6.7v-15h-6.3v-2.9h9.6v18h6.5v2.9h-16.5v-3Zm23-17.9h3.4v3h.3a5.4 5.4 0 0 1 2.2-2.7c1-.5 2.3-.8 4.1-.8 1.8 0 3.1.2 4 .7a4 4 0 0 1 2.1 2.5c.4 1 .7 2.7.7 4.8V448h-3.4v-13.5c0-1.3-.1-2.2-.4-3-.3-.6-.7-1.1-1.4-1.4-.6-.3-1.5-.4-2.6-.4-1.5 0-2.6.2-3.4.7-.8.4-1.3 1.2-1.7 2.2a16 16 0 0 0-.5 4.5V448h-3.3v-20.9Zm32.7 21.3c-2.4 0-4.2-.3-5.5-1a5.5 5.5 0 0 1-2.7-3.2c-.5-1.6-.8-3.8-.8-6.8 0-2.8.3-5 .8-6.6a5.4 5.4 0 0 1 2.7-3.2c1.2-.6 3-1 5.2-1 2.4 0 4.2.4 5.4 1.1 1.2.7 2 2 2.5 3.6.5 1.7.7 4.2.6 7.6h-13.8c0 1.7.3 3 .6 4 .4 1 1 1.6 1.7 2 .8.4 1.9.5 3.3.5 1.3 0 2.3-.1 2.9-.5.6-.4 1-1.2 1.4-2.3h3.5a9.6 9.6 0 0 1-1.3 3.6c-.5.8-1.3 1.4-2.3 1.7-1 .3-2.4.5-4.2.5Zm5-12.4c0-1.7-.3-3-.6-4-.3-.8-.9-1.5-1.6-1.8a7 7 0 0 0-3.1-.6c-1.3 0-2.3.2-3 .6-.7.3-1.2 1-1.6 1.9-.3.9-.5 2.2-.7 3.9h10.6Zm40.1-15.2h5.2L635 448h-3.4l-2-6.9h-10l-2 6.9h-3.4l7.8-27.2Zm6.9 17.3-4.1-14.4h-.3l-4.1 14.4h8.5Zm20.3 10.3c-2.4 0-4.2-.3-5.5-1a5.8 5.8 0 0 1-2.8-3.2c-.5-1.6-.8-3.8-.8-6.6 0-3 .3-5.1.8-6.7a5.6 5.6 0 0 1 2.8-3.3c1.3-.7 3-1 5.4-1 2 0 3.5.2 4.6.6 1.1.4 2 1 2.4 2 .5 1 .9 2.3 1 4h-3.4c-.2-1.3-.7-2.3-1.3-2.8-.6-.5-1.6-.8-3-.8-1.6 0-2.8.3-3.6.8-.8.4-1.4 1.3-1.8 2.4-.3 1.1-.5 2.7-.5 4.8 0 2 .2 3.6.5 4.7.4 1.1 1 1.9 1.8 2.4.9.4 2 .7 3.6.7 1.4 0 2.4-.3 3-.7.6-.4 1-1.3 1.3-2.5h3.4a8.8 8.8 0 0 1-1 3.8c-.5.8-1.3 1.5-2.4 1.8-1 .4-2.5.6-4.5.6Zm25.8 0c-1.7 0-3-.2-3.8-.6a3.4 3.4 0 0 1-1.7-2.1c-.3-1-.5-2.3-.5-4v-11.6h-5.4l.8-3h4.8v-4.7l3.1-1.3v6h7.3v3h-7.3v11.5c0 .9.1 1.6.3 2.2.2.5.6 1 1.2 1.2.5.3 1.4.4 2.6.4 1 0 2.4-.1 4.1-.4v3c-2.3.3-4.2.4-5.5.4Zm19.5-29.5h4.6v4.5h-4.6V419ZM689 445h6.7v-15h-6.3v-2.9h9.6v18h6.5v2.9H689v-3Zm31.4 3.4c-2.4 0-4.2-.3-5.4-1a5.6 5.6 0 0 1-2.7-3.3c-.6-1.5-.8-3.7-.8-6.6 0-2.9.2-5 .8-6.6a5.5 5.5 0 0 1 2.7-3.3c1.2-.7 3-1 5.4-1 2.3 0 4.1.3 5.4 1 1.3.6 2.2 1.7 2.8 3.3.5 1.6.8 3.8.8 6.6 0 2.9-.3 5-.9 6.6a5.6 5.6 0 0 1-2.7 3.3c-1.3.7-3 1-5.4 1Zm0-3a7 7 0 0 0 3.4-.7c.8-.5 1.4-1.3 1.7-2.4.3-1.1.5-2.7.5-4.8 0-2-.2-3.7-.5-4.8-.4-1.1-1-2-1.7-2.4-.8-.5-2-.7-3.4-.7-1.5 0-2.6.2-3.4.7-.8.5-1.3 1.3-1.7 2.4-.3 1.1-.5 2.7-.5 4.8 0 2.1.2 3.7.5 4.8.4 1.1 1 2 1.7 2.4.8.5 2 .7 3.4.7Zm15.7-18.3h3.3v3h.3a5.4 5.4 0 0 1 2.2-2.7c.9-.5 2.3-.8 4-.8 1.8 0 3.2.2 4.2.7a4 4 0 0 1 2 2.5c.4 1 .6 2.7.6 4.8V448h-3.3v-13.5c0-1.3-.1-2.2-.4-3-.3-.6-.7-1.1-1.4-1.4-.6-.3-1.5-.4-2.7-.4-1.4 0-2.5.2-3.3.7-.8.4-1.4 1.2-1.7 2.2a16 16 0 0 0-.5 4.5V448h-3.3v-20.9Zm32.3 21.3c-2.2 0-4-.2-5.2-.6-1.2-.3-2-1-2.6-1.9a8 8 0 0 1-.7-3.8h3.4c0 .9.2 1.5.5 2 .4.5 1 .8 1.6 1 .7.2 1.7.3 3 .3s2.3 0 3-.2c.8-.2 1.3-.5 1.6-1 .3-.3.4-1 .4-1.8 0-.7-.1-1.3-.5-1.8-.4-.4-1-.8-1.8-1.2l-3.7-1c-1.9-.3-3.4-.8-4.4-1.2a5 5 0 0 1-2.2-1.8c-.4-.8-.6-1.7-.6-3 0-1.5.2-2.7.7-3.5.5-.8 1.3-1.4 2.5-1.7 1.1-.4 2.8-.6 5-.6 2 0 3.5.2 4.6.5a4 4 0 0 1 2.4 1.7c.5.7.8 1.8 1 3.3H773c-.1-1-.5-1.7-1.2-2-.7-.4-1.8-.5-3.5-.5a12 12 0 0 0-3 .2c-.6.2-1.1.5-1.4 1-.3.3-.5 1-.5 1.7 0 .5.2.9.6 1.2.4.4 1 .7 2 1 .9.4 2.2.8 3.8 1.2 1.9.4 3.3 1 4.3 1.5s1.7 1.1 2 2c.5.7.7 1.7.7 3 0 1.5-.3 2.8-.8 3.6-.5.9-1.3 1.5-2.5 1.9-1.2.3-2.9.5-5 .5Z"
      fill="#fff" />
    <path opacity=".4"
      d="M1282.2 570 1385 746c12.8 22-3 49.5-28.3 49.5H827.3a32.9 32.9 0 0 1-26.7-51.9l46.7-66c5.1-7.3 12.5-12.6 20.9-15.1L1237 552.2c17.3-5.3 36 2.1 45.2 17.9ZM1076.8 308.6l43.3 227a22.9 22.9 0 0 1-15.7 26.1l-205 63a16.2 16.2 0 0 1-18.8-23.3L1047 303.8a16 16 0 0 1 29.8 4.8ZM1107 285.1c4.7-1.5 10.3-.4 13 4.2l124.2 218.6a9.5 9.5 0 0 1-5.6 14l-75.3 21c-4.5 1.2-8.7.5-12-1.7a15.9 15.9 0 0 1-6.6-10.4l-45-235c-1-5.2 2.6-9.1 7.3-10.7ZM247.4 59l107.3 183.8c13.4 22.9-3 51.7-29.5 51.7h-553.4c-27.8 0-44-31.5-28-54.2l49-69.1c5.2-7.5 13-13 21.8-15.7L200 40.2A41.2 41.2 0 0 1 247.4 59ZM32.8-214.7 78 22.5a24 24 0 0 1-16.4 27.3l-214.3 66a17 17 0 0 1-19.7-24.6l173.8-311a16.8 16.8 0 0 1 31.3 5ZM208.2-5.8a10 10 0 0 1-6 14.6l-78.8 22a15 15 0 0 1-12.6-1.7c-3.5-2.2-6-6-7-11L56.8-227.6c-1-5.5 2.7-9.6 7.7-11.2 5-1.6 10.8-.5 13.5 4.3L208.2-5.8Z"
      fill="#fff" fill-opacity=".1" stroke="#fff" />
    <mask id="b" maskUnits="userSpaceOnUse" x="524" y="567" width="152" height="39" fill="#000">
      <path fill="#fff" d="M524 567h152v39H524z" />
      <path
        d="M525 568h4.1v4H525v-4Zm0 32.7v-22.4h4V604.4h-4v-3.7ZM551.2 605c-2.2 0-3.9-.3-5-.9a4.3 4.3 0 0 1-2.2-2.6c-.3-1.1-.5-2.8-.5-5V582h-7v-3.7h7.2l.3-7.5h4l-.3 7.5h9.4v3.7h-9.4v14.4c0 1.2.1 2 .3 2.7a3 3 0 0 0 1.5 1.6c.8.3 1.9.5 3.4.5h5.3v3.8h-7ZM566.5 568h4.3v14.2h.4a7.2 7.2 0 0 1 2.8-3.5 11 11 0 0 1 5.2-1c2.3 0 4 .3 5.3 1 1.3.5 2.1 1.5 2.6 3 .6 1.3.9 3.3.9 6v16.7h-4.3v-16.8c0-1.6-.2-2.9-.6-3.7-.3-.9-.9-1.5-1.7-1.9-.8-.3-2-.5-3.5-.5-1.9 0-3.3.3-4.3.8-1 .6-1.7 1.5-2.1 2.9-.4 1.3-.7 3.2-.7 5.7v13.5h-4.3V568ZM604 605c-2.3 0-4-.3-5.2-.8-1.1-.4-2-1.2-2.5-2.3-.5-1.1-.7-2.7-.7-4.7 0-2.4.4-4.3 1-5.6.8-1.3 2-2.2 3.7-2.8 1.7-.5 4.1-.8 7.2-.8h4.9v-1.3c0-1.4-.2-2.5-.6-3.2-.3-.8-1-1.3-1.8-1.7-.9-.3-2.1-.5-3.7-.5-2.1 0-3.6.3-4.3.8-.8.5-1.2 1.5-1.3 3h-4.3c0-2 .3-3.4 1-4.5.5-1 1.5-1.8 2.9-2.2 1.4-.5 3.4-.7 6-.7s4.7.2 6.1.8c1.5.5 2.5 1.4 3.1 2.7.6 1.3 1 3.2 1 5.5v17.7h-4v-3.3h-.3c-1 1.5-2 2.5-3.1 3-1.2.6-2.9.9-5.2.9Zm1-3.8c2 0 3.4-.3 4.4-.9a5 5 0 0 0 2.3-3c.4-1.3.6-3.2.6-5.8h-5.8c-1.7.1-3 .3-4 .6s-1.6.9-2 1.6c-.4.7-.6 1.7-.6 3 0 1.8.4 3 1.1 3.6.7.6 2 .9 4 .9ZM636.7 605c-3 0-5.4-.5-7.1-1.3a7.3 7.3 0 0 1-3.6-4c-.7-2-1-4.7-1-8.3 0-3.6.3-6.4 1-8.3a7 7 0 0 1 3.6-4.2c1.6-.8 4-1.2 7-1.2 2.5 0 4.5.2 5.9.7 1.4.5 2.4 1.4 3 2.6a12 12 0 0 1 1.2 5h-4.2c-.4-1.8-1-3-1.7-3.6-.8-.6-2.1-1-4-1-2 0-3.4.4-4.5 1-1 .6-1.8 1.6-2.3 3a21 21 0 0 0-.7 6c0 2.6.2 4.6.7 6a5.2 5.2 0 0 0 2.3 2.9c1 .6 2.6.8 4.6.8 1.8 0 3-.2 3.8-.8.8-.5 1.4-1.6 1.8-3.1h4.2c0 2-.5 3.6-1.1 4.7a5.4 5.4 0 0 1-3.1 2.3c-1.4.5-3.3.8-5.8.8ZM662.5 605c-2.2 0-3.9-.3-5-.8-1.2-.4-2-1.2-2.6-2.3-.5-1.1-.7-2.7-.7-4.7 0-2.4.3-4.3 1-5.6.8-1.3 2-2.2 3.7-2.8 1.7-.5 4-.8 7.2-.8h4.8v-1.3c0-1.4-.1-2.5-.5-3.2-.4-.8-1-1.3-1.9-1.7-.8-.3-2-.5-3.7-.5-2 0-3.5.3-4.2.8-.8.5-1.2 1.5-1.3 3H655c0-2 .3-3.4.9-4.5.6-1 1.6-1.8 3-2.2 1.4-.5 3.4-.7 6-.7s4.6.2 6 .8c1.6.5 2.6 1.4 3.2 2.7.6 1.3.9 3.2.9 5.5v17.7h-4v-3.3h-.3c-.9 1.5-1.9 2.5-3 3-1.2.6-2.9.9-5.2.9Zm1-3.8c2 0 3.5-.3 4.5-.9a5 5 0 0 0 2.2-3c.5-1.3.7-3.2.7-5.8H665c-1.7.1-3 .3-4 .6s-1.6.9-2 1.6c-.4.7-.6 1.7-.6 3 0 1.8.4 3 1 3.6.8.6 2.1.9 4 .9Z" />
    </mask>
    <path
      d="M525 568h4.1v4H525v-4Zm0 32.7v-22.4h4V604.4h-4v-3.7ZM551.2 605c-2.2 0-3.9-.3-5-.9a4.3 4.3 0 0 1-2.2-2.6c-.3-1.1-.5-2.8-.5-5V582h-7v-3.7h7.2l.3-7.5h4l-.3 7.5h9.4v3.7h-9.4v14.4c0 1.2.1 2 .3 2.7a3 3 0 0 0 1.5 1.6c.8.3 1.9.5 3.4.5h5.3v3.8h-7ZM566.5 568h4.3v14.2h.4a7.2 7.2 0 0 1 2.8-3.5 11 11 0 0 1 5.2-1c2.3 0 4 .3 5.3 1 1.3.5 2.1 1.5 2.6 3 .6 1.3.9 3.3.9 6v16.7h-4.3v-16.8c0-1.6-.2-2.9-.6-3.7-.3-.9-.9-1.5-1.7-1.9-.8-.3-2-.5-3.5-.5-1.9 0-3.3.3-4.3.8-1 .6-1.7 1.5-2.1 2.9-.4 1.3-.7 3.2-.7 5.7v13.5h-4.3V568ZM604 605c-2.3 0-4-.3-5.2-.8-1.1-.4-2-1.2-2.5-2.3-.5-1.1-.7-2.7-.7-4.7 0-2.4.4-4.3 1-5.6.8-1.3 2-2.2 3.7-2.8 1.7-.5 4.1-.8 7.2-.8h4.9v-1.3c0-1.4-.2-2.5-.6-3.2-.3-.8-1-1.3-1.8-1.7-.9-.3-2.1-.5-3.7-.5-2.1 0-3.6.3-4.3.8-.8.5-1.2 1.5-1.3 3h-4.3c0-2 .3-3.4 1-4.5.5-1 1.5-1.8 2.9-2.2 1.4-.5 3.4-.7 6-.7s4.7.2 6.1.8c1.5.5 2.5 1.4 3.1 2.7.6 1.3 1 3.2 1 5.5v17.7h-4v-3.3h-.3c-1 1.5-2 2.5-3.1 3-1.2.6-2.9.9-5.2.9Zm1-3.8c2 0 3.4-.3 4.4-.9a5 5 0 0 0 2.3-3c.4-1.3.6-3.2.6-5.8h-5.8c-1.7.1-3 .3-4 .6s-1.6.9-2 1.6c-.4.7-.6 1.7-.6 3 0 1.8.4 3 1.1 3.6.7.6 2 .9 4 .9ZM636.7 605c-3 0-5.4-.5-7.1-1.3a7.3 7.3 0 0 1-3.6-4c-.7-2-1-4.7-1-8.3 0-3.6.3-6.4 1-8.3a7 7 0 0 1 3.6-4.2c1.6-.8 4-1.2 7-1.2 2.5 0 4.5.2 5.9.7 1.4.5 2.4 1.4 3 2.6a12 12 0 0 1 1.2 5h-4.2c-.4-1.8-1-3-1.7-3.6-.8-.6-2.1-1-4-1-2 0-3.4.4-4.5 1-1 .6-1.8 1.6-2.3 3a21 21 0 0 0-.7 6c0 2.6.2 4.6.7 6a5.2 5.2 0 0 0 2.3 2.9c1 .6 2.6.8 4.6.8 1.8 0 3-.2 3.8-.8.8-.5 1.4-1.6 1.8-3.1h4.2c0 2-.5 3.6-1.1 4.7a5.4 5.4 0 0 1-3.1 2.3c-1.4.5-3.3.8-5.8.8ZM662.5 605c-2.2 0-3.9-.3-5-.8-1.2-.4-2-1.2-2.6-2.3-.5-1.1-.7-2.7-.7-4.7 0-2.4.3-4.3 1-5.6.8-1.3 2-2.2 3.7-2.8 1.7-.5 4-.8 7.2-.8h4.8v-1.3c0-1.4-.1-2.5-.5-3.2-.4-.8-1-1.3-1.9-1.7-.8-.3-2-.5-3.7-.5-2 0-3.5.3-4.2.8-.8.5-1.2 1.5-1.3 3H655c0-2 .3-3.4.9-4.5.6-1 1.6-1.8 3-2.2 1.4-.5 3.4-.7 6-.7s4.6.2 6 .8c1.6.5 2.6 1.4 3.2 2.7.6 1.3.9 3.2.9 5.5v17.7h-4v-3.3h-.3c-.9 1.5-1.9 2.5-3 3-1.2.6-2.9.9-5.2.9Zm1-3.8c2 0 3.5-.3 4.5-.9a5 5 0 0 0 2.2-3c.5-1.3.7-3.2.7-5.8H665c-1.7.1-3 .3-4 .6s-1.6.9-2 1.6c-.4.7-.6 1.7-.6 3 0 1.8.4 3 1 3.6.8.6 2.1.9 4 .9Z"
      fill="#fff" />
    <path
      d="M525 568h4.1v4H525v-4Zm0 32.7v-22.4h4V604.4h-4v-3.7ZM551.2 605c-2.2 0-3.9-.3-5-.9a4.3 4.3 0 0 1-2.2-2.6c-.3-1.1-.5-2.8-.5-5V582h-7v-3.7h7.2l.3-7.5h4l-.3 7.5h9.4v3.7h-9.4v14.4c0 1.2.1 2 .3 2.7a3 3 0 0 0 1.5 1.6c.8.3 1.9.5 3.4.5h5.3v3.8h-7ZM566.5 568h4.3v14.2h.4a7.2 7.2 0 0 1 2.8-3.5 11 11 0 0 1 5.2-1c2.3 0 4 .3 5.3 1 1.3.5 2.1 1.5 2.6 3 .6 1.3.9 3.3.9 6v16.7h-4.3v-16.8c0-1.6-.2-2.9-.6-3.7-.3-.9-.9-1.5-1.7-1.9-.8-.3-2-.5-3.5-.5-1.9 0-3.3.3-4.3.8-1 .6-1.7 1.5-2.1 2.9-.4 1.3-.7 3.2-.7 5.7v13.5h-4.3V568ZM604 605c-2.3 0-4-.3-5.2-.8-1.1-.4-2-1.2-2.5-2.3-.5-1.1-.7-2.7-.7-4.7 0-2.4.4-4.3 1-5.6.8-1.3 2-2.2 3.7-2.8 1.7-.5 4.1-.8 7.2-.8h4.9v-1.3c0-1.4-.2-2.5-.6-3.2-.3-.8-1-1.3-1.8-1.7-.9-.3-2.1-.5-3.7-.5-2.1 0-3.6.3-4.3.8-.8.5-1.2 1.5-1.3 3h-4.3c0-2 .3-3.4 1-4.5.5-1 1.5-1.8 2.9-2.2 1.4-.5 3.4-.7 6-.7s4.7.2 6.1.8c1.5.5 2.5 1.4 3.1 2.7.6 1.3 1 3.2 1 5.5v17.7h-4v-3.3h-.3c-1 1.5-2 2.5-3.1 3-1.2.6-2.9.9-5.2.9Zm1-3.8c2 0 3.4-.3 4.4-.9a5 5 0 0 0 2.3-3c.4-1.3.6-3.2.6-5.8h-5.8c-1.7.1-3 .3-4 .6s-1.6.9-2 1.6c-.4.7-.6 1.7-.6 3 0 1.8.4 3 1.1 3.6.7.6 2 .9 4 .9ZM636.7 605c-3 0-5.4-.5-7.1-1.3a7.3 7.3 0 0 1-3.6-4c-.7-2-1-4.7-1-8.3 0-3.6.3-6.4 1-8.3a7 7 0 0 1 3.6-4.2c1.6-.8 4-1.2 7-1.2 2.5 0 4.5.2 5.9.7 1.4.5 2.4 1.4 3 2.6a12 12 0 0 1 1.2 5h-4.2c-.4-1.8-1-3-1.7-3.6-.8-.6-2.1-1-4-1-2 0-3.4.4-4.5 1-1 .6-1.8 1.6-2.3 3a21 21 0 0 0-.7 6c0 2.6.2 4.6.7 6a5.2 5.2 0 0 0 2.3 2.9c1 .6 2.6.8 4.6.8 1.8 0 3-.2 3.8-.8.8-.5 1.4-1.6 1.8-3.1h4.2c0 2-.5 3.6-1.1 4.7a5.4 5.4 0 0 1-3.1 2.3c-1.4.5-3.3.8-5.8.8ZM662.5 605c-2.2 0-3.9-.3-5-.8-1.2-.4-2-1.2-2.6-2.3-.5-1.1-.7-2.7-.7-4.7 0-2.4.3-4.3 1-5.6.8-1.3 2-2.2 3.7-2.8 1.7-.5 4-.8 7.2-.8h4.8v-1.3c0-1.4-.1-2.5-.5-3.2-.4-.8-1-1.3-1.9-1.7-.8-.3-2-.5-3.7-.5-2 0-3.5.3-4.2.8-.8.5-1.2 1.5-1.3 3H655c0-2 .3-3.4.9-4.5.6-1 1.6-1.8 3-2.2 1.4-.5 3.4-.7 6-.7s4.6.2 6 .8c1.6.5 2.6 1.4 3.2 2.7.6 1.3.9 3.2.9 5.5v17.7h-4v-3.3h-.3c-.9 1.5-1.9 2.5-3 3-1.2.6-2.9.9-5.2.9Zm1-3.8c2 0 3.5-.3 4.5-.9a5 5 0 0 0 2.2-3c.5-1.3.7-3.2.7-5.8H665c-1.7.1-3 .3-4 .6s-1.6.9-2 1.6c-.4.7-.6 1.7-.6 3 0 1.8.4 3 1 3.6.8.6 2.1.9 4 .9Z"
      stroke="#fff" stroke-width=".8" mask="url(#b)" />
  </g>
  <defs>
    <clipPath id="a">
      <path fill="#fff" d="M0 0h1200v675H0z" />
    </clipPath>
  </defs>
</svg>